<svg xmlns="http://www.w3.org/2000/svg" xmlns:xlink="http://www.w3.org/1999/xlink" width="500" zoomAndPan="magnify" viewBox="0 0 375 374.999991" height="500" preserveAspectRatio="xMidYMid meet" version="1.0"><defs><clipPath id="36fa6d8435"><path d="M 58.324219 39 L 316 39 L 316 337 L 58.324219 337 Z M 58.324219 39 " clip-rule="nonzero"/></clipPath></defs><g clip-path="url(#36fa6d8435)"><path fill="#ffffff" d="M 315.785156 227.320312 C 315.785156 226.875 315.609375 226.441406 315.285156 226.117188 L 272.304688 183.070312 L 305.695312 149.617188 C 305.9375 149.386719 306.085938 149.089844 306.152344 148.765625 L 315.746094 100.996094 C 315.757812 100.957031 315.691406 100.929688 315.691406 100.875 C 315.757812 100.359375 315.675781 99.84375 315.285156 99.453125 L 256.257812 40.316406 C 255.621094 39.679688 254.5 39.679688 253.863281 40.316406 L 191.851562 102.472656 L 129.835938 40.316406 C 129.203125 39.679688 128.082031 39.695312 127.445312 40.328125 L 68.414062 99.617188 C 68.226562 99.792969 68.226562 100.035156 68.144531 100.265625 C 68.105469 100.359375 67.96875 100.375 67.941406 100.46875 L 58.351562 148.375 C 58.246094 148.929688 58.40625 149.496094 58.8125 149.902344 L 101.644531 192.8125 L 68.402344 226.117188 C 68.226562 226.292969 68.214844 226.550781 68.132812 226.78125 C 68.089844 226.875 67.957031 226.890625 67.941406 226.996094 L 58.351562 274.902344 C 58.246094 275.457031 58.40625 276.027344 58.8125 276.429688 L 117.839844 335.570312 C 117.921875 335.648438 118.058594 335.636719 118.164062 335.703125 C 118.21875 335.746094 118.179688 335.824219 118.246094 335.867188 C 118.503906 336 118.773438 336.070312 119.042969 336.070312 C 119.207031 336.070312 119.367188 336.042969 119.53125 336 C 119.636719 335.976562 119.636719 335.824219 119.730469 335.773438 C 119.894531 335.691406 120.097656 335.703125 120.230469 335.554688 L 182.191406 273.375 L 244.289062 335.570312 C 244.371094 335.648438 244.503906 335.636719 244.613281 335.703125 C 244.667969 335.746094 244.625 335.824219 244.695312 335.867188 C 244.949219 336 245.21875 336.070312 245.492188 336.070312 C 245.652344 336.070312 245.816406 336.042969 245.976562 335.988281 C 246.070312 335.960938 246.070312 335.839844 246.152344 335.796875 C 246.328125 335.71875 246.542969 335.71875 246.679688 335.582031 L 305.707031 276.445312 C 305.953125 276.203125 306.101562 275.902344 306.167969 275.578125 L 315.757812 227.671875 C 315.773438 227.632812 315.703125 227.605469 315.703125 227.550781 C 315.703125 227.472656 315.785156 227.402344 315.785156 227.320312 Z M 302.953125 147.601562 L 269.925781 180.6875 L 253.269531 164.003906 L 311.339844 105.828125 Z M 121.800781 329.207031 L 130.1875 287.3125 L 160.214844 257.230469 L 189.164062 228.230469 L 180.746094 270.042969 Z M 302.953125 274.402344 L 248.21875 329.234375 L 253.488281 302.601562 L 256.484375 287.445312 L 311.339844 232.492188 Z M 254.933594 284.199219 L 193.039062 222.191406 C 193.039062 222.191406 193.039062 222.191406 193.027344 222.191406 L 192.863281 222.03125 C 192.539062 221.734375 192.121094 221.570312 191.703125 221.570312 C 191.269531 221.570312 190.835938 221.746094 190.511719 222.058594 L 128.621094 284.0625 L 71.980469 227.320312 L 105.226562 194.03125 C 105.226562 194.03125 105.238281 194.03125 105.238281 194.03125 L 133.875 165.34375 C 134.535156 164.679688 134.535156 163.609375 133.875 162.949219 L 71.996094 100.804688 L 128.632812 43.914062 L 190.660156 106.070312 C 191.296875 106.707031 192.417969 106.707031 193.054688 106.070312 L 255.082031 43.914062 L 311.71875 100.65625 L 292.121094 120.308594 L 249.703125 162.800781 C 249.367188 163.125 249.191406 163.570312 249.191406 164.003906 C 249.191406 164.4375 249.355469 164.871094 249.691406 165.195312 L 268.738281 184.273438 C 268.738281 184.289062 268.738281 184.289062 268.738281 184.289062 L 311.707031 227.320312 Z M 254.933594 284.199219 " fill-opacity="1" fill-rule="nonzero"/></g><path fill="#8c52ff" d="M 249.191406 164.003906 C 249.191406 163.570312 249.355469 163.136719 249.691406 162.800781 L 292.105469 120.308594 L 311.707031 100.65625 L 255.066406 43.914062 L 193.054688 106.070312 C 192.417969 106.707031 191.296875 106.707031 190.660156 106.070312 L 128.632812 43.914062 L 71.996094 100.804688 L 133.886719 162.949219 C 134.550781 163.609375 134.550781 164.679688 133.886719 165.34375 L 105.25 194.03125 C 105.25 194.03125 105.238281 194.03125 105.238281 194.03125 L 71.996094 227.320312 L 128.632812 284.0625 L 190.527344 222.058594 C 190.851562 221.746094 191.285156 221.570312 191.714844 221.570312 C 192.132812 221.570312 192.554688 221.734375 192.878906 222.03125 L 193.039062 222.191406 C 193.039062 222.191406 193.039062 222.191406 193.054688 222.191406 L 254.945312 284.199219 L 311.71875 227.320312 L 268.75 184.289062 C 268.75 184.289062 268.75 184.289062 268.75 184.273438 L 249.703125 165.195312 C 249.367188 164.871094 249.191406 164.4375 249.191406 164.003906 Z M 249.191406 164.003906 " fill-opacity="1" fill-rule="nonzero"/></svg>