<svg xmlns="http://www.w3.org/2000/svg" xmlns:xlink="http://www.w3.org/1999/xlink" width="512" zoomAndPan="magnify" viewBox="0 0 384 383.999986" height="512" preserveAspectRatio="xMidYMid meet" version="1.0"><defs><clipPath id="20cc63d605"><path d="M 59.726562 40 L 324 40 L 324 344 L 59.726562 344 Z M 59.726562 40 " clip-rule="nonzero"/></clipPath></defs><g clip-path="url(#20cc63d605)"><path fill="#000000" d="M 323.921875 232.503906 C 323.921875 232.050781 323.742188 231.605469 323.40625 231.273438 L 279.300781 187.253906 L 313.566406 153.046875 C 313.816406 152.8125 313.96875 152.507812 314.039062 152.175781 L 323.878906 103.328125 C 323.894531 103.285156 323.824219 103.257812 323.824219 103.203125 C 323.894531 102.675781 323.808594 102.152344 323.40625 101.75 L 262.835938 41.277344 C 262.183594 40.628906 261.03125 40.628906 260.382812 41.277344 L 196.742188 104.835938 L 133.105469 41.277344 C 132.457031 40.628906 131.304688 40.640625 130.652344 41.292969 L 70.078125 101.917969 C 69.886719 102.097656 69.886719 102.34375 69.800781 102.582031 C 69.761719 102.675781 69.621094 102.691406 69.59375 102.789062 L 59.753906 151.773438 C 59.640625 152.34375 59.808594 152.921875 60.222656 153.339844 L 104.179688 197.21875 L 70.066406 231.273438 C 69.886719 231.453125 69.871094 231.71875 69.789062 231.953125 C 69.746094 232.050781 69.609375 232.0625 69.59375 232.171875 L 59.753906 281.160156 C 59.640625 281.726562 59.808594 282.308594 60.222656 282.722656 L 120.796875 343.195312 C 120.882812 343.277344 121.019531 343.265625 121.128906 343.335938 C 121.1875 343.375 121.144531 343.457031 121.214844 343.5 C 121.476562 343.640625 121.753906 343.707031 122.03125 343.707031 C 122.199219 343.707031 122.363281 343.679688 122.53125 343.640625 C 122.640625 343.609375 122.640625 343.457031 122.738281 343.402344 C 122.90625 343.320312 123.113281 343.335938 123.25 343.183594 L 186.832031 279.597656 L 250.554688 343.195312 C 250.636719 343.277344 250.773438 343.265625 250.886719 343.335938 C 250.941406 343.375 250.898438 343.457031 250.96875 343.5 C 251.234375 343.640625 251.507812 343.707031 251.785156 343.707031 C 251.953125 343.707031 252.121094 343.679688 252.285156 343.625 C 252.382812 343.597656 252.382812 343.472656 252.464844 343.429688 C 252.644531 343.347656 252.867188 343.347656 253.007812 343.210938 L 313.582031 282.738281 C 313.828125 282.488281 313.980469 282.183594 314.050781 281.851562 L 323.894531 232.867188 C 323.90625 232.824219 323.835938 232.796875 323.835938 232.742188 C 323.835938 232.65625 323.921875 232.589844 323.921875 232.503906 Z M 310.753906 150.984375 L 276.863281 184.820312 L 259.769531 167.757812 L 319.359375 108.269531 Z M 124.859375 336.691406 L 133.46875 293.847656 L 164.28125 263.085938 L 193.984375 233.433594 L 185.351562 276.191406 Z M 310.753906 280.648438 L 254.585938 336.71875 L 259.992188 309.488281 L 263.070312 293.988281 L 319.359375 237.792969 Z M 261.476562 290.667969 L 197.964844 227.261719 C 197.964844 227.261719 197.964844 227.261719 197.949219 227.261719 L 197.785156 227.09375 C 197.449219 226.789062 197.019531 226.625 196.589844 226.625 C 196.148438 226.625 195.703125 226.804688 195.371094 227.121094 L 131.859375 290.527344 L 73.738281 232.503906 L 107.851562 198.464844 C 107.851562 198.464844 107.867188 198.464844 107.867188 198.464844 L 137.25 169.128906 C 137.929688 168.449219 137.929688 167.355469 137.25 166.679688 L 73.753906 103.132812 L 131.875 44.957031 L 195.523438 108.515625 C 196.175781 109.167969 197.324219 109.167969 197.976562 108.515625 L 261.628906 44.957031 L 319.75 102.980469 L 299.636719 123.074219 L 256.113281 166.527344 C 255.765625 166.859375 255.585938 167.316406 255.585938 167.757812 C 255.585938 168.199219 255.75 168.644531 256.097656 168.976562 L 275.640625 188.488281 C 275.640625 188.5 275.640625 188.5 275.640625 188.5 L 319.734375 232.503906 Z M 261.476562 290.667969 " fill-opacity="1" fill-rule="nonzero"/></g><path fill="#8c52ff" d="M 255.585938 167.757812 C 255.585938 167.316406 255.75 166.871094 256.097656 166.527344 L 299.621094 123.074219 L 319.734375 102.980469 L 261.613281 44.957031 L 197.976562 108.515625 C 197.324219 109.167969 196.175781 109.167969 195.523438 108.515625 L 131.875 44.957031 L 73.753906 103.132812 L 137.265625 166.679688 C 137.945312 167.355469 137.945312 168.449219 137.265625 169.128906 L 107.878906 198.464844 C 107.878906 198.464844 107.867188 198.464844 107.867188 198.464844 L 73.753906 232.503906 L 131.875 290.527344 L 195.386719 227.121094 C 195.71875 226.804688 196.160156 226.625 196.605469 226.625 C 197.035156 226.625 197.464844 226.789062 197.796875 227.09375 L 197.964844 227.261719 C 197.964844 227.261719 197.964844 227.261719 197.976562 227.261719 L 261.488281 290.667969 L 319.75 232.503906 L 275.65625 188.5 C 275.65625 188.5 275.65625 188.5 275.65625 188.488281 L 256.113281 168.976562 C 255.765625 168.644531 255.585938 168.199219 255.585938 167.757812 Z M 255.585938 167.757812 " fill-opacity="1" fill-rule="nonzero"/></svg>